<mxfile host="Electron" modified="2024-07-08T03:03:32.041Z" agent="Mozilla/5.0 (Macintosh; Intel Mac OS X 10_15_7) AppleWebKit/537.36 (KHTML, like Gecko) draw.io/24.4.13 Chrome/124.0.6367.207 Electron/30.0.6 Safari/537.36" etag="I3HSp2R1txIqQpT3W0L-" version="24.4.13" type="device">
  <diagram name="第 1 页" id="seZe6hWdMiPZHZqL8AXh">
    <mxGraphModel dx="2405" dy="-143" grid="1" gridSize="10" guides="1" tooltips="1" connect="1" arrows="1" fold="1" page="1" pageScale="1" pageWidth="827" pageHeight="1169" math="0" shadow="0">
      <root>
        <mxCell id="0" />
        <mxCell id="1" parent="0" />
        <mxCell id="Ma8ogdNUP4bWnvsDDy7U-1" value="&lt;font style=&quot;font-size: 48px;&quot;&gt;MOP结算场景&lt;/font&gt;" style="text;strokeColor=none;fillColor=none;align=left;verticalAlign=middle;spacingLeft=4;spacingRight=4;overflow=hidden;points=[[0,0.5],[1,0.5]];portConstraint=eastwest;rotatable=0;whiteSpace=wrap;html=1;" vertex="1" parent="1">
          <mxGeometry x="-767.5" y="1277" width="317.5" height="53" as="geometry" />
        </mxCell>
        <mxCell id="Ma8ogdNUP4bWnvsDDy7U-2" value="&lt;font style=&quot;font-size: 36px;&quot;&gt;接口视角&lt;/font&gt;" style="text;html=1;align=center;verticalAlign=middle;resizable=0;points=[];autosize=1;strokeColor=none;fillColor=none;" vertex="1" parent="1">
          <mxGeometry x="-767.5" y="1380" width="170" height="60" as="geometry" />
        </mxCell>
        <mxCell id="Ma8ogdNUP4bWnvsDDy7U-5" style="edgeStyle=entityRelationEdgeStyle;rounded=0;orthogonalLoop=1;jettySize=auto;html=1;startArrow=none;endArrow=none;segment=10;curved=1;sourcePerimeterSpacing=0;targetPerimeterSpacing=0;exitX=1;exitY=0.5;exitDx=0;exitDy=0;" edge="1" parent="1" source="Ma8ogdNUP4bWnvsDDy7U-3" target="Ma8ogdNUP4bWnvsDDy7U-4">
          <mxGeometry relative="1" as="geometry" />
        </mxCell>
        <mxCell id="Ma8ogdNUP4bWnvsDDy7U-27" style="edgeStyle=entityRelationEdgeStyle;rounded=0;orthogonalLoop=1;jettySize=auto;html=1;startArrow=none;endArrow=none;segment=10;curved=1;sourcePerimeterSpacing=0;targetPerimeterSpacing=0;exitX=1;exitY=0.5;exitDx=0;exitDy=0;" edge="1" parent="1" source="Ma8ogdNUP4bWnvsDDy7U-3" target="Ma8ogdNUP4bWnvsDDy7U-26">
          <mxGeometry relative="1" as="geometry" />
        </mxCell>
        <mxCell id="Ma8ogdNUP4bWnvsDDy7U-3" value="MOP&lt;span style=&quot;background-color: initial;&quot;&gt;-BFF&lt;br&gt;&lt;/span&gt;&lt;span style=&quot;white-space-collapse: preserve; color: rgb(33, 33, 33); font-family: Inter, OpenSans, Helvetica, Arial, sans-serif; text-align: left; background-color: rgb(255, 255, 255);&quot;&gt;/mop/order/review/v5&lt;/span&gt;" style="whiteSpace=wrap;html=1;rounded=1;arcSize=50;align=center;verticalAlign=middle;strokeWidth=1;autosize=0;spacing=4;treeFolding=1;treeMoving=1;newEdgeStyle={&quot;edgeStyle&quot;:&quot;entityRelationEdgeStyle&quot;,&quot;startArrow&quot;:&quot;none&quot;,&quot;endArrow&quot;:&quot;none&quot;,&quot;segment&quot;:10,&quot;curved&quot;:1,&quot;sourcePerimeterSpacing&quot;:0,&quot;targetPerimeterSpacing&quot;:0};strokeColor=#2D7600;fontFamily=Helvetica;fontSize=12;fontColor=#ffffff;fillColor=#60a917;" vertex="1" parent="1">
          <mxGeometry x="-742.5" y="1670" width="120" height="60" as="geometry" />
        </mxCell>
        <mxCell id="Ma8ogdNUP4bWnvsDDy7U-10" style="edgeStyle=entityRelationEdgeStyle;rounded=0;orthogonalLoop=1;jettySize=auto;html=1;startArrow=none;endArrow=none;segment=10;curved=0;sourcePerimeterSpacing=0;targetPerimeterSpacing=0;exitX=1;exitY=0.5;exitDx=0;exitDy=0;" edge="1" parent="1" source="Ma8ogdNUP4bWnvsDDy7U-4" target="Ma8ogdNUP4bWnvsDDy7U-7">
          <mxGeometry relative="1" as="geometry" />
        </mxCell>
        <mxCell id="Ma8ogdNUP4bWnvsDDy7U-11" style="edgeStyle=entityRelationEdgeStyle;rounded=0;orthogonalLoop=1;jettySize=auto;html=1;startArrow=none;endArrow=none;segment=10;curved=0;sourcePerimeterSpacing=0;targetPerimeterSpacing=0;exitX=1;exitY=0.5;exitDx=0;exitDy=0;" edge="1" parent="1" source="Ma8ogdNUP4bWnvsDDy7U-4" target="Ma8ogdNUP4bWnvsDDy7U-8">
          <mxGeometry relative="1" as="geometry" />
        </mxCell>
        <mxCell id="Ma8ogdNUP4bWnvsDDy7U-4" value="&lt;div&gt;CC&lt;/div&gt;" style="whiteSpace=wrap;html=1;rounded=1;arcSize=50;align=center;verticalAlign=middle;strokeWidth=1;autosize=0;spacing=4;treeFolding=1;treeMoving=1;newEdgeStyle={&quot;edgeStyle&quot;:&quot;entityRelationEdgeStyle&quot;,&quot;startArrow&quot;:&quot;none&quot;,&quot;endArrow&quot;:&quot;none&quot;,&quot;segment&quot;:10,&quot;curved&quot;:1,&quot;sourcePerimeterSpacing&quot;:0,&quot;targetPerimeterSpacing&quot;:0};fillColor=#6a00ff;" vertex="1" parent="1">
          <mxGeometry x="-540" y="1530" width="100" height="60" as="geometry" />
        </mxCell>
        <mxCell id="Ma8ogdNUP4bWnvsDDy7U-6" value="&lt;font style=&quot;font-size: 20px;&quot;&gt;1:2&lt;/font&gt;" style="edgeLabel;html=1;align=center;verticalAlign=middle;resizable=0;points=[];fontFamily=Helvetica;fontSize=11;fontColor=default;labelBackgroundColor=default;fillColor=none;gradientColor=none;" vertex="1" connectable="0" parent="1">
          <mxGeometry x="-520.0033333333334" y="1950" as="geometry">
            <mxPoint x="-65" y="-417" as="offset" />
          </mxGeometry>
        </mxCell>
        <mxCell id="Ma8ogdNUP4bWnvsDDy7U-17" value="" style="edgeStyle=orthogonalEdgeStyle;rounded=0;orthogonalLoop=1;jettySize=auto;html=1;" edge="1" parent="1" source="Ma8ogdNUP4bWnvsDDy7U-7" target="Ma8ogdNUP4bWnvsDDy7U-16">
          <mxGeometry relative="1" as="geometry" />
        </mxCell>
        <mxCell id="Ma8ogdNUP4bWnvsDDy7U-7" value="&lt;font style=&quot;&quot;&gt;&lt;span style=&quot;font-size: 18px;&quot;&gt;/preference/settings/${customer_id}&lt;/span&gt;&lt;br&gt;&lt;span style=&quot;font-size: 18px;&quot;&gt;获取⽤⼾所有配置&lt;/span&gt;&lt;br&gt;&lt;/font&gt;" style="text;html=1;align=center;verticalAlign=middle;resizable=0;points=[];autosize=1;strokeColor=none;fillColor=none;" vertex="1" parent="1">
          <mxGeometry x="-410" y="1470" width="310" height="60" as="geometry" />
        </mxCell>
        <mxCell id="Ma8ogdNUP4bWnvsDDy7U-20" value="" style="edgeStyle=orthogonalEdgeStyle;rounded=0;orthogonalLoop=1;jettySize=auto;html=1;entryX=0;entryY=0.5;entryDx=0;entryDy=0;" edge="1" parent="1" source="Ma8ogdNUP4bWnvsDDy7U-8" target="Ma8ogdNUP4bWnvsDDy7U-18">
          <mxGeometry relative="1" as="geometry">
            <mxPoint x="40" y="1600" as="targetPoint" />
          </mxGeometry>
        </mxCell>
        <mxCell id="Ma8ogdNUP4bWnvsDDy7U-8" value="&lt;font style=&quot;&quot;&gt;&lt;span style=&quot;font-size: 18px;&quot;&gt;/preference/settings/${customer_id}/${key}&lt;/span&gt;&lt;br&gt;&lt;span style=&quot;font-size: 18px;&quot;&gt;根据设置的key获取⽤⼾配置信息&lt;/span&gt;&lt;br&gt;&lt;/font&gt;" style="text;html=1;align=center;verticalAlign=middle;resizable=0;points=[];autosize=1;strokeColor=none;fillColor=none;" vertex="1" parent="1">
          <mxGeometry x="-400" y="1570" width="360" height="60" as="geometry" />
        </mxCell>
        <mxCell id="Ma8ogdNUP4bWnvsDDy7U-16" value="redis" style="rounded=1;whiteSpace=wrap;html=1;fillColor=#f8cecc;strokeColor=#b85450;" vertex="1" parent="1">
          <mxGeometry x="150" y="1470" width="120" height="60" as="geometry" />
        </mxCell>
        <mxCell id="Ma8ogdNUP4bWnvsDDy7U-18" value="mysql" style="rounded=1;whiteSpace=wrap;html=1;fillColor=#f8cecc;strokeColor=#b85450;" vertex="1" parent="1">
          <mxGeometry x="150" y="1570" width="120" height="60" as="geometry" />
        </mxCell>
        <mxCell id="Ma8ogdNUP4bWnvsDDy7U-21" value="" style="endArrow=none;html=1;rounded=0;exitX=1.004;exitY=0.447;exitDx=0;exitDy=0;exitPerimeter=0;entryX=0;entryY=0.5;entryDx=0;entryDy=0;entryPerimeter=0;" edge="1" parent="1" source="Ma8ogdNUP4bWnvsDDy7U-7" target="Ma8ogdNUP4bWnvsDDy7U-18">
          <mxGeometry width="50" height="50" relative="1" as="geometry">
            <mxPoint x="-110" y="1440" as="sourcePoint" />
            <mxPoint x="140" y="1590" as="targetPoint" />
          </mxGeometry>
        </mxCell>
        <mxCell id="Ma8ogdNUP4bWnvsDDy7U-22" value="" style="endArrow=none;html=1;rounded=0;exitX=1.016;exitY=0.473;exitDx=0;exitDy=0;exitPerimeter=0;entryX=0;entryY=0.5;entryDx=0;entryDy=0;" edge="1" parent="1" source="Ma8ogdNUP4bWnvsDDy7U-8" target="Ma8ogdNUP4bWnvsDDy7U-16">
          <mxGeometry width="50" height="50" relative="1" as="geometry">
            <mxPoint x="-110" y="1440" as="sourcePoint" />
            <mxPoint x="-60" y="1390" as="targetPoint" />
          </mxGeometry>
        </mxCell>
        <mxCell id="Ma8ogdNUP4bWnvsDDy7U-23" value="&lt;font style=&quot;font-size: 20px;&quot;&gt;1:1&lt;/font&gt;" style="edgeLabel;html=1;align=center;verticalAlign=middle;resizable=0;points=[];fontFamily=Helvetica;fontSize=11;fontColor=default;labelBackgroundColor=default;fillColor=none;gradientColor=none;" vertex="1" connectable="0" parent="1">
          <mxGeometry x="99.99666666666656" y="1970" as="geometry">
            <mxPoint x="-65" y="-417" as="offset" />
          </mxGeometry>
        </mxCell>
        <mxCell id="Ma8ogdNUP4bWnvsDDy7U-24" value="&lt;font style=&quot;font-size: 20px;&quot;&gt;1:1&lt;/font&gt;" style="edgeLabel;html=1;align=center;verticalAlign=middle;resizable=0;points=[];fontFamily=Helvetica;fontSize=11;fontColor=default;labelBackgroundColor=default;fillColor=none;gradientColor=none;" vertex="1" connectable="0" parent="1">
          <mxGeometry x="99.99666666666656" y="1900" as="geometry">
            <mxPoint x="-65" y="-417" as="offset" />
          </mxGeometry>
        </mxCell>
        <mxCell id="Ma8ogdNUP4bWnvsDDy7U-25" value="&lt;font style=&quot;font-size: 20px;&quot;&gt;1:1&lt;/font&gt;" style="edgeLabel;html=1;align=center;verticalAlign=middle;resizable=0;points=[];fontFamily=Helvetica;fontSize=11;fontColor=default;labelBackgroundColor=default;fillColor=none;gradientColor=none;" vertex="1" connectable="0" parent="1">
          <mxGeometry x="119.99666666666656" y="2030" as="geometry">
            <mxPoint x="-65" y="-417" as="offset" />
          </mxGeometry>
        </mxCell>
        <mxCell id="Ma8ogdNUP4bWnvsDDy7U-30" value="" style="edgeStyle=entityRelationEdgeStyle;rounded=0;orthogonalLoop=1;jettySize=auto;html=1;startArrow=none;endArrow=none;segment=10;curved=1;sourcePerimeterSpacing=0;targetPerimeterSpacing=0;" edge="1" parent="1" source="Ma8ogdNUP4bWnvsDDy7U-26" target="Ma8ogdNUP4bWnvsDDy7U-29">
          <mxGeometry relative="1" as="geometry" />
        </mxCell>
        <mxCell id="Ma8ogdNUP4bWnvsDDy7U-26" value="&lt;div&gt;CRM Adapter&lt;/div&gt;" style="whiteSpace=wrap;html=1;rounded=1;arcSize=50;align=center;verticalAlign=middle;strokeWidth=1;autosize=0;spacing=4;treeFolding=1;treeMoving=1;newEdgeStyle={&quot;edgeStyle&quot;:&quot;entityRelationEdgeStyle&quot;,&quot;startArrow&quot;:&quot;none&quot;,&quot;endArrow&quot;:&quot;none&quot;,&quot;segment&quot;:10,&quot;curved&quot;:1,&quot;sourcePerimeterSpacing&quot;:0,&quot;targetPerimeterSpacing&quot;:0};fillColor=#76608a;" vertex="1" parent="1">
          <mxGeometry x="-540" y="1760" width="100" height="60" as="geometry" />
        </mxCell>
        <mxCell id="Ma8ogdNUP4bWnvsDDy7U-28" value="&lt;font style=&quot;font-size: 20px;&quot;&gt;1:1&lt;/font&gt;" style="edgeLabel;html=1;align=center;verticalAlign=middle;resizable=0;points=[];fontFamily=Helvetica;fontSize=11;fontColor=default;labelBackgroundColor=default;fillColor=none;gradientColor=none;" vertex="1" connectable="0" parent="1">
          <mxGeometry x="-500.00333333333344" y="2150" as="geometry">
            <mxPoint x="-65" y="-417" as="offset" />
          </mxGeometry>
        </mxCell>
        <mxCell id="Ma8ogdNUP4bWnvsDDy7U-35" value="" style="edgeStyle=orthogonalEdgeStyle;rounded=0;orthogonalLoop=1;jettySize=auto;html=1;" edge="1" parent="1" source="Ma8ogdNUP4bWnvsDDy7U-29" target="Ma8ogdNUP4bWnvsDDy7U-33">
          <mxGeometry relative="1" as="geometry" />
        </mxCell>
        <mxCell id="Ma8ogdNUP4bWnvsDDy7U-29" value="&lt;font style=&quot;font-size: 18px;&quot;&gt;/api/v2/customers/detail/simple&lt;br&gt;查询用户信息&lt;/font&gt;" style="text;html=1;align=center;verticalAlign=middle;resizable=0;points=[];autosize=1;strokeColor=none;fillColor=none;" vertex="1" parent="1">
          <mxGeometry x="-370" y="1760" width="270" height="60" as="geometry" />
        </mxCell>
        <mxCell id="Ma8ogdNUP4bWnvsDDy7U-37" value="" style="edgeStyle=entityRelationEdgeStyle;rounded=0;orthogonalLoop=1;jettySize=auto;html=1;startArrow=none;endArrow=none;segment=10;curved=1;sourcePerimeterSpacing=0;targetPerimeterSpacing=0;" edge="1" parent="1" source="Ma8ogdNUP4bWnvsDDy7U-33" target="Ma8ogdNUP4bWnvsDDy7U-36">
          <mxGeometry relative="1" as="geometry" />
        </mxCell>
        <mxCell id="Ma8ogdNUP4bWnvsDDy7U-33" value="&lt;div&gt;CC&lt;/div&gt;" style="whiteSpace=wrap;html=1;rounded=1;arcSize=50;align=center;verticalAlign=middle;strokeWidth=1;autosize=0;spacing=4;treeFolding=1;treeMoving=1;newEdgeStyle={&quot;edgeStyle&quot;:&quot;entityRelationEdgeStyle&quot;,&quot;startArrow&quot;:&quot;none&quot;,&quot;endArrow&quot;:&quot;none&quot;,&quot;segment&quot;:10,&quot;curved&quot;:1,&quot;sourcePerimeterSpacing&quot;:0,&quot;targetPerimeterSpacing&quot;:0};fillColor=#6a00ff;" vertex="1" parent="1">
          <mxGeometry y="1760" width="100" height="60" as="geometry" />
        </mxCell>
        <mxCell id="Ma8ogdNUP4bWnvsDDy7U-40" value="" style="edgeStyle=orthogonalEdgeStyle;rounded=0;orthogonalLoop=1;jettySize=auto;html=1;" edge="1" parent="1" source="Ma8ogdNUP4bWnvsDDy7U-36" target="Ma8ogdNUP4bWnvsDDy7U-39">
          <mxGeometry relative="1" as="geometry" />
        </mxCell>
        <mxCell id="Ma8ogdNUP4bWnvsDDy7U-36" value="&lt;font style=&quot;font-size: 18px;&quot;&gt;/member/memberInfo/getMemberSimple&lt;br&gt;查询用户概要信息&lt;/font&gt;" style="text;html=1;align=center;verticalAlign=middle;resizable=0;points=[];autosize=1;strokeColor=none;fillColor=none;" vertex="1" parent="1">
          <mxGeometry x="120" y="1760" width="350" height="60" as="geometry" />
        </mxCell>
        <mxCell id="Ma8ogdNUP4bWnvsDDy7U-38" value="redis" style="rounded=1;whiteSpace=wrap;html=1;fillColor=#f8cecc;strokeColor=#b85450;" vertex="1" parent="1">
          <mxGeometry x="580" y="1694" width="120" height="60" as="geometry" />
        </mxCell>
        <mxCell id="Ma8ogdNUP4bWnvsDDy7U-39" value="mysql" style="rounded=1;whiteSpace=wrap;html=1;fillColor=#f8cecc;strokeColor=#b85450;" vertex="1" parent="1">
          <mxGeometry x="580" y="1820" width="120" height="60" as="geometry" />
        </mxCell>
        <mxCell id="Ma8ogdNUP4bWnvsDDy7U-41" value="" style="edgeStyle=orthogonalEdgeStyle;rounded=0;orthogonalLoop=1;jettySize=auto;html=1;entryX=0;entryY=0.5;entryDx=0;entryDy=0;" edge="1" parent="1" target="Ma8ogdNUP4bWnvsDDy7U-38">
          <mxGeometry relative="1" as="geometry">
            <mxPoint x="469.46" y="1790" as="sourcePoint" />
            <mxPoint x="579.46" y="1850" as="targetPoint" />
            <Array as="points">
              <mxPoint x="520" y="1791" />
              <mxPoint x="520" y="1724" />
            </Array>
          </mxGeometry>
        </mxCell>
        <mxCell id="Ma8ogdNUP4bWnvsDDy7U-45" value="或" style="edgeLabel;html=1;align=center;verticalAlign=middle;resizable=0;points=[];" vertex="1" connectable="0" parent="Ma8ogdNUP4bWnvsDDy7U-41">
          <mxGeometry x="-0.7811" y="-2" relative="1" as="geometry">
            <mxPoint x="-1" as="offset" />
          </mxGeometry>
        </mxCell>
        <mxCell id="Ma8ogdNUP4bWnvsDDy7U-43" value="&lt;font style=&quot;font-size: 20px;&quot;&gt;1:1&lt;/font&gt;" style="edgeLabel;html=1;align=center;verticalAlign=middle;resizable=0;points=[];fontFamily=Helvetica;fontSize=11;fontColor=default;labelBackgroundColor=default;fillColor=none;gradientColor=none;" vertex="1" connectable="0" parent="1">
          <mxGeometry x="589.9966666666666" y="2110" as="geometry">
            <mxPoint x="-65" y="-417" as="offset" />
          </mxGeometry>
        </mxCell>
        <mxCell id="Ma8ogdNUP4bWnvsDDy7U-44" value="&lt;font style=&quot;font-size: 20px;&quot;&gt;1:1&lt;/font&gt;" style="edgeLabel;html=1;align=center;verticalAlign=middle;resizable=0;points=[];fontFamily=Helvetica;fontSize=11;fontColor=default;labelBackgroundColor=default;fillColor=none;gradientColor=none;" vertex="1" connectable="0" parent="1">
          <mxGeometry x="609.9966666666666" y="2280" as="geometry">
            <mxPoint x="-65" y="-417" as="offset" />
          </mxGeometry>
        </mxCell>
        <mxCell id="Ma8ogdNUP4bWnvsDDy7U-46" value="&lt;font style=&quot;font-size: 20px;&quot;&gt;1:1&lt;/font&gt;" style="edgeLabel;html=1;align=center;verticalAlign=middle;resizable=0;points=[];fontFamily=Helvetica;fontSize=11;fontColor=default;labelBackgroundColor=default;fillColor=none;gradientColor=none;" vertex="1" connectable="0" parent="1">
          <mxGeometry x="9.996666666666556" y="2180" as="geometry">
            <mxPoint x="-65" y="-417" as="offset" />
          </mxGeometry>
        </mxCell>
        <mxCell id="Ma8ogdNUP4bWnvsDDy7U-51" value="" style="edgeStyle=entityRelationEdgeStyle;rounded=0;orthogonalLoop=1;jettySize=auto;html=1;startArrow=none;endArrow=none;segment=10;curved=1;sourcePerimeterSpacing=0;targetPerimeterSpacing=0;" edge="1" parent="1" source="Ma8ogdNUP4bWnvsDDy7U-47" target="Ma8ogdNUP4bWnvsDDy7U-50">
          <mxGeometry relative="1" as="geometry" />
        </mxCell>
        <mxCell id="Ma8ogdNUP4bWnvsDDy7U-47" value="&lt;div&gt;CAC&lt;/div&gt;" style="whiteSpace=wrap;html=1;rounded=1;arcSize=50;align=center;verticalAlign=middle;strokeWidth=1;autosize=0;spacing=4;treeFolding=1;treeMoving=1;newEdgeStyle={&quot;edgeStyle&quot;:&quot;entityRelationEdgeStyle&quot;,&quot;startArrow&quot;:&quot;none&quot;,&quot;endArrow&quot;:&quot;none&quot;,&quot;segment&quot;:10,&quot;curved&quot;:1,&quot;sourcePerimeterSpacing&quot;:0,&quot;targetPerimeterSpacing&quot;:0};fillColor=#d5e8d4;strokeColor=#82b366;" vertex="1" parent="1">
          <mxGeometry y="1870" width="100" height="60" as="geometry" />
        </mxCell>
        <mxCell id="Ma8ogdNUP4bWnvsDDy7U-48" value="" style="edgeStyle=orthogonalEdgeStyle;rounded=0;orthogonalLoop=1;jettySize=auto;html=1;entryX=0;entryY=0.75;entryDx=0;entryDy=0;exitX=1.01;exitY=0.512;exitDx=0;exitDy=0;exitPerimeter=0;" edge="1" parent="1" source="Ma8ogdNUP4bWnvsDDy7U-29" target="Ma8ogdNUP4bWnvsDDy7U-47">
          <mxGeometry relative="1" as="geometry">
            <mxPoint x="-90" y="1800" as="sourcePoint" />
            <mxPoint x="10" y="1800" as="targetPoint" />
          </mxGeometry>
        </mxCell>
        <mxCell id="Ma8ogdNUP4bWnvsDDy7U-50" value="&lt;font style=&quot;&quot;&gt;&lt;span style=&quot;font-size: 18px;&quot;&gt;/asset/v1/stars/balance&lt;br&gt;查询用户星星数&lt;/span&gt;&lt;/font&gt;" style="text;html=1;align=center;verticalAlign=middle;resizable=0;points=[];autosize=1;strokeColor=none;fillColor=none;" vertex="1" parent="1">
          <mxGeometry x="210" y="1870" width="210" height="60" as="geometry" />
        </mxCell>
        <mxCell id="Ma8ogdNUP4bWnvsDDy7U-52" value="&lt;font style=&quot;font-size: 20px;&quot;&gt;1:1&lt;/font&gt;" style="edgeLabel;html=1;align=center;verticalAlign=middle;resizable=0;points=[];fontFamily=Helvetica;fontSize=11;fontColor=default;labelBackgroundColor=default;fillColor=none;gradientColor=none;" vertex="1" connectable="0" parent="1">
          <mxGeometry x="-0.0033333333334439885" y="2300" as="geometry">
            <mxPoint x="-65" y="-417" as="offset" />
          </mxGeometry>
        </mxCell>
      </root>
    </mxGraphModel>
  </diagram>
</mxfile>
